<svg xmlns="http://www.w3.org/2000/svg" width="400" height="300" fill="none" viewBox="0 0 400 300">
  <g class="Call center support">
    <path fill="#F6D4A0" d="M351.97 288.55H63.09s-13-48.395 5.315-44.26c18.315 4.135 27.44 34.21 69.34 23.605 41.9-10.605 60.345-15.195 60.345-15.195l130.57-.29-7.305 11.355s17.045-2.955 33.86-1.18c16.815 1.775-5.605 20.065 15.345 16.225 20.95-3.84 7.675 10.035 7.675 10.035s-27.15-.295-26.265-.295Z" class="shade10"/>
    <path fill="#fff" d="M378.34 289.095h-.11l-25.155-.28c-.575 0-.91 0-1.105-.03H62.9l-.05-.185c-.375-1.41-9.155-34.57-1.12-42.935 1.655-1.72 3.915-2.27 6.73-1.635 6.105 1.38 11.285 5.69 16.765 10.255 11.5 9.575 24.54 20.43 52.46 13.35 41.42-10.5 60.16-15.15 60.345-15.195h.06l131.03-.29-7.25 11.265c3.08-.5 18.4-2.67 33.375-1.09 3.03.32 5 1.185 6.085 2.645 1.5 2 .91 4.73.36 7.355-.5 2.31-.935 4.5.23 5.69 1.165 1.19 4 1.385 8.595.54 6.675-1.22 10.635-.77 11.775 1.35 1.725 3.195-3.645 8.86-3.875 9.1l-.075.09Zm-26.37-.795c.605 0 24.32.275 26.155.295.64-.69 5.175-5.75 3.725-8.445-1-1.875-4.9-2.255-11.245-1.09-4.845.885-7.72.665-9.04-.685-1.32-1.35-.87-3.7-.36-6.145.51-2.445 1.065-5.115-.28-6.955-1-1.34-2.85-2.14-5.735-2.445-16.59-1.745-33.62 1.15-33.79 1.18l-.56.095 7.36-11.445-130.08.29c-.86.21-19.66 4.88-60.31 15.185a67.282 67.282 0 0 1-16.575 2.24c-17.5 0-27.73-8.53-36.33-15.69-5.435-4.525-10.565-8.8-16.555-10.155-2.63-.59-4.735-.09-6.26 1.5-7.54 7.845.5 39.54 1.195 42.27H351.97ZM283.035 70.77c0-14.24 13.28-20.235 34.215-20.235 20.935 0 40.805 6 40.805 20.235s-19.87 25.79-40.805 25.79a55.69 55.69 0 0 1-7.085-.455l-24.29 19.395s5.89-9.25 10.17-23.325c-10.075-4.675-13.01-12.505-13.01-21.405Z" class="shade0"/>
    <path fill="#fff" d="M283.035 70.77c0-14.24 13.28-20.235 34.215-20.235 20.935 0 40.805 6 40.805 20.235s-19.87 25.79-40.805 25.79a55.69 55.69 0 0 1-7.085-.455l-24.29 19.395s5.89-9.25 10.17-23.325c-10.075-4.675-13.01-12.505-13.01-21.405Z" class="shade0"/>
    <path fill="#28192D" d="m284.865 116.605.8-1.265c.06-.09 5.86-9.295 10.08-23.055-8.84-4.14-12.96-11-12.96-21.5 0-6.96 3.155-12.235 9.385-15.675 5.78-3.195 14.22-4.81 25.08-4.81 11.13 0 21.195 1.705 28.355 4.8 8.31 3.59 12.7 9 12.7 15.685 0 13.87-19.185 26.04-41.055 26.04a56.394 56.394 0 0 1-7-.44l-25.385 20.22Zm32.385-65.82c-10.775 0-19.135 1.595-24.835 4.745-6.06 3.345-9.13 8.475-9.13 15.24 0 10.395 4.09 17.115 12.865 21.15l.2.095-.065.205a109.432 109.432 0 0 1-9.5 22.2l23.295-18.575h.105a56.14 56.14 0 0 0 7.05.45c21.605 0 40.555-11.935 40.555-25.54 0-6.455-4.285-11.72-12.4-15.23-7.08-3.025-17.08-4.74-28.14-4.74Z" class="shade90"/>
    <path fill="#A6C2EA" d="M337.385 74.945a3.755 3.755 0 1 0 0-7.51 3.755 3.755 0 0 0 0 7.51Zm-14.775 0a3.755 3.755 0 1 0 0-7.51 3.755 3.755 0 0 0 0 7.51Zm-14.775 0a3.755 3.755 0 1 0 0-7.51 3.755 3.755 0 0 0 0 7.51Z" class="shade50"/>
    <path fill="#fff" d="M304 93.69s4.77 3.085 13.265 2.87Z" class="shade0"/>
    <path fill="#28192D" d="M316.42 96.82c-7.955 0-12.525-2.89-12.57-2.92l.27-.42c.05.03 4.83 3.045 13.125 2.83v.5l-.825.01Z" class="shade90"/>
    <path fill="#ECA3B5" d="m224.255 252.635 12.705-51.43L218.665 187s-16.165 53.525-17.04 56.845c-.37 1.375-.275 4.96.55 8.79h22.08Z" class="shade40"/>
    <path fill="#28192D" d="m224.565 252.42-.5-.125 2.55-10.165c3.365-13.415 6.84-27.29 10.085-41l.5.115c-3.245 13.695-6.72 27.57-10.085 41l-2.55 10.175Zm-22.69.015a35.313 35.313 0 0 0-.37-1.895c-.4-1.905-.78-3.705-.335-5.705 3.18-11.545 6.625-22.78 9.955-33.645 2.42-7.9 4.925-16.07 7.295-24.255l.5.135c-2.375 8.19-4.88 16.365-7.3 24.265-3.33 10.86-6.775 22.095-9.95 33.62-.42 1.885-.05 3.63.34 5.5.135.62.27 1.265.375 1.92l-.51.06Z" class="shade90"/>
    <path fill="#fff" d="M125.2 237.86s-2.7-4.265-6.2-4.595c-3.5-.33-7.73-2.735-9.165-3-1.435-.265-2.31 2.68.42 4.315 2.73 1.635 10.62 2.73 10.62 2.73l4.325.55Z" class="shade0"/>
    <path fill="#28192D" d="m125.695 238.175-4.87-.605c-.325-.045-7.97-1.12-10.715-2.76-1.77-1.06-2.15-2.69-1.755-3.76a1.383 1.383 0 0 1 1.5-1c.859.233 1.695.541 2.5.92 1.87.78 4.43 1.855 6.64 2.06 3.58.34 6.285 4.535 6.4 4.715l.3.43Zm-16.05-7.675a.96.96 0 0 0-.521.227.964.964 0 0 0-.299.483c-.325.88 0 2.245 1.545 3.155 2.655 1.59 10.445 2.685 10.5 2.695l3.78.47c-.8-1.09-3.04-3.78-5.71-4.03-2.285-.215-4.885-1.305-6.785-2.1a14.759 14.759 0 0 0-2.4-.885.511.511 0 0 0-.11-.015Z" class="shade90"/>
    <path fill="#fff" d="M213.045 244.5a90.38 90.38 0 0 0-9.775-7.725c-20.205-.5-63-1.76-71.605 1.43-11.5 4.25 1.815 7.785 24.115 14.175 21.145 6.06 58.88 6.16 64.655 1.105a72.113 72.113 0 0 0-7.39-8.985Z" class="shade0"/>
    <path fill="#28192D" d="M195.645 257.385c-13.065 0-28.54-1.5-39.935-4.775l-2.35-.675c-17.115-4.895-26.055-7.59-26.165-10.55-.045-1.215 1.35-2.305 4.385-3.425 8.355-3.09 48.075-2.06 69.42-1.5l2.355.06.06.045a90.871 90.871 0 0 1 9.8 7.745 72.042 72.042 0 0 1 7.415 9l.13.18-.17.15c-2.75 2.44-12.81 3.745-24.945 3.745Zm-31.5-21.05c-14.685 0-27.975.47-32.37 2.095-2.73 1-4.095 2-4.06 2.935.105 2.74 10.88 5.82 25.8 10.09l2.35.675c9.715 2.785 23.935 4.545 38.03 4.71 13.31.15 23.295-1.145 26.225-3.415a71.707 71.707 0 0 0-7.23-8.755 90.742 90.742 0 0 0-9.7-7.67l-2.205-.055c-9.985-.25-23.955-.61-36.86-.61h.02Z" class="shade90"/>
    <path fill="#fff" d="M134.85 245.745c-1.405 1.205-3.625 2.26-7 1.885-7-.79-17.44-3.655-17.405-10.42.035-6.765 5.595-6.975 15.235-3.6a22.249 22.249 0 0 1 7.82 4.435" class="shade0"/>
    <path fill="#28192D" d="M129.19 247.955c-.45 0-.899-.026-1.345-.08-8.545-.96-17.665-4.265-17.63-10.67 0-2.385.69-4 2.06-5 2.31-1.63 6.605-1.265 13.5 1.15a22.809 22.809 0 0 1 7.88 4.5l-.34.37a22.207 22.207 0 0 0-7.705-4.385c-6.74-2.36-10.89-2.745-13.055-1.215-1.23.865-1.835 2.365-1.85 4.58 0 2.91 1.975 5.345 5.92 7.225s8.775 2.665 11.265 2.945c2.735.31 5-.305 6.79-1.825l.325.38a8.757 8.757 0 0 1-5.815 2.025Z" class="shade90"/>
    <path fill="#fff" d="M123.905 242.85c-1.87 1.78-5.79 5.37-8.775 6.735-2.6 1.185-1.135-2.85 2.705-5.865" class="shade0"/>
    <path fill="#28192D" d="M114.345 250.045a.706.706 0 0 1-.65-.335c-.585-.955 1.03-3.865 4-6.19l.31.395c-2.88 2.26-4.23 4.94-3.87 5.535.095.155.435.12.905-.095 2.115-.965 5.125-3.275 8.705-6.685l.345.36c-3.62 3.45-6.675 5.79-8.845 6.78-.28.142-.587.222-.9.235Z" class="shade90"/>
    <path fill="#fff" d="M120.1 241.33c-2.55 2.85-6.885 7.705-9.77 8.415-3.305.82 1.755-6.5 5.525-9.61" class="shade0"/>
    <path fill="#28192D" d="M109.88 250.06a.79.79 0 0 1-.775-.415c-.775-1.535 3.545-7.175 6.59-9.705l.32.385c-3.205 2.66-7 8-6.465 9.095.1.195.445.155.72.085 2.805-.695 7.07-5.465 9.62-8.315l.21.14.16.195c-2.585 2.89-6.915 7.735-9.87 8.465a2.043 2.043 0 0 1-.51.07Z" class="shade90"/>
    <path fill="#fff" d="M116.285 239.415c-2.545 2.85-6.225 8.59-9.11 9.305-3.305.815 3.37-9.24 7.14-12.365" class="shade0"/>
    <path fill="#28192D" d="M106.83 249a.714.714 0 0 1-.7-.39c-.885-1.755 4.86-9.835 8.025-12.465l.32.385c-3.38 2.81-8.55 10.565-7.895 11.855.06.125.24.15.53.08 2.04-.5 4.54-3.68 6.745-6.5.805-1 1.565-2 2.245-2.745l.375.335c-.675.75-1.43 1.705-2.225 2.72-2.255 2.865-4.815 6.115-7 6.66a1.81 1.81 0 0 1-.42.065Z" class="shade90"/>
    <path fill="#fff" d="M114.225 236.76c-2.55 2.85-5.73 7.255-8.62 7.97-3.305.815 3.395-9.23 7.145-12.365" class="shade0"/>
    <path fill="#28192D" d="M105.265 245.025a.707.707 0 0 1-.7-.39c-.885-1.755 4.86-9.835 8.025-12.465l.32.385c-3.385 2.81-8.55 10.565-7.9 11.855.065.125.24.15.535.08 2.245-.555 4.735-3.5 6.93-6.085.54-.635 1.065-1.255 1.56-1.81l.375.33c-.5.555-1 1.17-1.555 1.805-2.24 2.645-4.785 5.65-7.19 6.245a1.795 1.795 0 0 1-.4.05Zm153.4-144.575s16.67 1.815 18.72 18.335c2.05 16.52-8 35.75-6.5 43.63 1.5 7.88 2.545 8.715 2.545 8.715s-22.655 4.5-32.47 2.14c-9.815-2.36-21.32-7.145-21.32-7.145s5.37-8.415 5.805-14.74c.435-6.325 3.31-45.63 15.19-50.725 11.88-5.095 18.03-.21 18.03-.21Zm-18.584 87.673-.163.473 4.719 1.622.162-.473-4.718-1.622Z" class="shade90"/>
    <path fill="#fff" d="M274.575 183.69c-11.705 9.595-20.965 22.415-36 19.5-3.53-.68-11.195-8.08-14.305-10l1.73-15.075c3.255-7.81 8.39-12.74 16.41-15.435l.24-.08c11.42-3.78 30.605 4.86 38.5 14.75a58.083 58.083 0 0 1-6.575 6.34Z" class="shade0"/>
    <path fill="#28192D" d="M242.84 203.87a22.776 22.776 0 0 1-4.335-.425c-2.355-.455-6.345-3.695-9.86-6.55a53.261 53.261 0 0 0-4.525-3.46l-.135-.085v-.16l1.79-15.19c3.315-7.945 8.58-12.895 16.57-15.58l.235-.075c11.475-3.795 30.91 5 38.775 14.83l.135.16-.14.16a58.33 58.33 0 0 1-6.615 6.365c-2.405 1.975-4.735 4.105-7 6.17-7.735 7.1-15.075 13.84-24.895 13.84Zm-18.34-10.78c1.095.695 2.655 1.96 4.445 3.415 3.3 2.685 7.405 6 9.64 6.45 11.83 2.285 20.08-5.275 28.81-13.275 2.255-2.065 4.59-4.205 7-6.185a57.264 57.264 0 0 0 6.42-6.155c-7.85-9.66-26.865-18.215-38.1-14.5l-.235.075c-7.83 2.63-13 7.5-16.25 15.265l-1.73 14.91Zm16.91-90.015s-6.035.23-10.275 7.5-2.92 28.54-2.92 28.54L245 109.675" class="shade90"/>
    <path fill="#28192D" d="M246.12 144.915s13.5 6.04 21.19.935c7.69-5.105 14.41-25.665 9.455-35.955s-31.345-15.45-36.115-7.94c-4.77 7.51 5.47 42.96 5.47 42.96Z" class="shade90"/>
    <path fill="#fff" d="M234.745 169.91c0-.06 2.475-9.23 2.5-9.29l4.17-20.565 16.54-2.865 1.545 33.445" class="shade0"/>
    <path fill="#28192D" d="M259.245 170.645 257.7 137.5l-16.095 2.79-4.135 20.395-1.305 4.895c-.565 2.105-1.15 4.28-1.175 4.395l-.5-.065c0-.045 0-.055 1.185-4.46.595-2.22 1.27-4.735 1.3-4.865l4.205-20.73.165-.03 16.82-2.915 1.575 33.73-.495.005Z" class="shade90"/>
    <path fill="#28192D" d="m257.935 137.19-.29 4.11c-4.785 7.64-11.42 13.15-18.615 10.415l2.365-11.66 16.54-2.865Z" class="shade90"/>
    <path fill="#fff" d="M259.28 107.135c-5.85-5.625-15.055-5.555-21.37-.3-3.9 3.25-6.875 8.45-9.79 16.5-6.915 19.09 11.21 34.175 24.745 17.5 10.365-12.74 14.635-25.795 6.415-33.7Z" class="shade0"/>
    <path fill="#28192D" d="M240.085 148.285a11.91 11.91 0 0 1-5.925-1.615c-6.09-3.445-10.2-12.6-6.275-23.425 3-8.305 6.05-13.425 9.865-16.6 6.535-5.44 15.865-5.305 21.705.31 7.595 7.295 5.265 19.71-6.395 34.05-3.19 3.925-7.885 7.28-12.975 7.28Zm8.545-45.135a16.501 16.501 0 0 0-10.56 3.88c-3.74 3.115-6.735 8.165-9.715 16.385-2.9 8-1.75 18.405 6.05 22.82 6.95 3.93 14-.285 18.27-5.545 11.47-14.115 13.815-26.28 6.435-33.375a15.043 15.043 0 0 0-10.48-4.165Z" class="shade90"/>
    <path fill="#28192D" d="m262.95 127.93-6.82 11.675s4-17.365 4.415-20.5l.44-3.135a74.803 74.803 0 0 1-11.375-8.545c-6.275-5.625-9.175-3.295-9.175-3.295s3.12-1.525 5-2.475c1.88-.95 11.455 2.5 11.455 2.5l7.61 5.68 1.605 4.305-2.855 13.28" class="shade90"/>
    <path fill="#fff" d="M236.73 125.6c-.13.41-.73 2.71-.87 2.875-1.275 1.525-2.395 1.185-1.5 2.5.615.875 2.34 1.05 3.65.92" class="shade0"/>
    <path fill="#28192D" d="M237.245 132.19c-1.23 0-2.5-.275-3.065-1.07a1.369 1.369 0 0 1-.285-.463 1.366 1.366 0 0 1-.085-.537c.055-.32.325-.5.67-.75a5.538 5.538 0 0 0 1.19-1.045c.085-.15.425-1.375.605-2.035.1-.345.18-.635.22-.755l.475.15c-.04.12-.115.4-.21.74-.455 1.64-.6 2.095-.705 2.22a5.965 5.965 0 0 1-1.29 1.135c-.26.18-.445.31-.465.43-.02.12.075.33.29.635.5.74 2.095.945 3.425.815l.045.5c-.26.015-.535.03-.815.03Zm7.29-4.115a.895.895 0 1 0 0-1.79.895.895 0 0 0 0 1.79Zm-11.22-2.94a.895.895 0 1 0 0-1.79.895.895 0 0 0 0 1.79Z" class="shade90"/>
    <path fill="#fff" d="M243.035 219.745s11.17-.63 15.37-4.1Z" class="shade0"/>
    <path fill="#28192D" d="m243.05 220-.03-.5c.11 0 11.135-.665 15.225-4.04l.32.385c-4.215 3.475-15.065 4.12-15.515 4.155Z" class="shade90"/>
    <path fill="#fff" d="m230.54 222.065 6.96 30.115h43.7c-.425-3.34-.565-14.865-.5-20.175.3-18.59 4.835-44.615 4.285-51.16-.57-6.78-14.42-14.55-24.195-19.18-1.355 2.65-21.32 35.925-21.32 35.925s-9.615-19.89-10.695-25.89l-9.625 19.8-1.08 15.67c.985 11.73 12.47 14.895 12.47 14.895Z" class="shade0"/>
    <path fill="#ECA3B5" d="M235.335 204.325c-2.54-6.41-5.35-12.54-7.795-19-.745-1.955-1.605-6.335-2.435-8.26l-6.565 10.105-.47 20c1 11.725 12.47 14.89 12.47 14.89l4.155 30.115h8.95c.05-13.675-3.185-34.92-8.31-47.85Z" class="shade40"/>
    <path fill="#28192D" d="M243.895 252.43H234.5l-4.165-30.17c-1.405-.45-11.57-4.06-12.5-15.065l.35-14.805h.5l-.35 14.775c.96 11.385 12.175 14.615 12.285 14.645l.16.045 4.15 30.06h8.5c0-13.09-3.075-34.345-8.29-47.5-1.12-2.825-2.31-5.64-3.46-8.36-1.46-3.455-2.97-7-4.34-10.625-.345-.91-.705-2.305-1.09-3.78-.385-1.475-.775-3-1.165-4.03l-6.3 9.7-.42-.27 6.82-10.5.185.43a38.436 38.436 0 0 1 1.365 4.545c.38 1.46.74 2.84 1.075 3.73 1.365 3.595 2.87 7.155 4.33 10.605 1.15 2.725 2.345 5.54 3.465 8.37 5.27 13.305 8.375 34.83 8.325 47.945l-.035.255Z" class="shade90"/>
    <path fill="#ECA3B5" d="M280.72 232c.3-18.59 7.245-41.37 6.695-47.915-.405-4.82-9.945-13.39-17.545-17.73a182.748 182.748 0 0 0-4.815 20c-3.53 19.26-4.355 46.265-4.455 65.805h20.6c-.425-3.32-.565-14.845-.48-20.16Z" class="shade40"/>
    <path fill="#fff" d="M281.5 252.43h-21.155v-.25c.145-28.365 1.65-50.5 4.46-65.845a184.151 184.151 0 0 1 4.82-20.05l.095-.3.27.155c7.09 4.05 17.24 12.825 17.67 17.93.235 2.82-.875 8.5-2.28 15.66-1.89 9.63-4.245 21.62-4.415 32.28-.08 5 .045 16.74.5 20.14l.035.28Zm-20.635-.5h20.07c-.41-3.745-.525-15.045-.45-19.93.17-10.705 2.53-22.715 4.425-32.37 1.395-7.135 2.5-12.77 2.27-15.5-.38-4.5-9.305-12.83-17.145-17.38a183.58 183.58 0 0 0-4.72 19.685c-2.815 15.245-4.315 37.28-4.465 65.495h.015Z" class="shade0"/>
    <path fill="#28192D" d="M281.5 252.43h-21.155v-.25c.145-28.365 1.65-50.5 4.46-65.845a184.151 184.151 0 0 1 4.82-20.05l.095-.3.27.155c7.09 4.05 17.24 12.825 17.67 17.93.235 2.82-.875 8.5-2.28 15.66-1.89 9.63-4.245 21.62-4.415 32.28-.08 5 .045 16.74.5 20.14l.035.28Zm-20.635-.5h20.07c-.41-3.745-.525-15.045-.45-19.93.17-10.705 2.53-22.715 4.425-32.37 1.395-7.135 2.5-12.77 2.27-15.5-.38-4.5-9.305-12.83-17.145-17.38a183.58 183.58 0 0 0-4.72 19.685c-2.815 15.245-4.315 37.28-4.465 65.495h.015Z" class="shade90"/>
    <path fill="#ECA3B5" d="M269 171.255s-16.38 53.78-17.265 57.1c-.885 3.32.885 19.5 9.295 21.025 8.41 1.525 12.395-8.41 12.395-8.41l13.645-55.255" class="shade40"/>
    <path fill="#fff" d="M262.77 249.79a10.09 10.09 0 0 1-1.785-.165c-2.305-.425-4.295-1.94-5.915-4.5-3.53-5.58-4.215-14.435-3.575-16.84.875-3.285 17.1-56.57 17.265-57.105l.5.145c-.165.535-16.385 53.81-17.26 57.09-.61 2.27.115 11.065 3.5 16.44 1.54 2.435 3.415 3.875 5.58 4.27.556.106 1.12.159 1.685.16 7 0 10.395-8.325 10.435-8.415l13.635-55.22.5.12-13.65 55.255c-.065.13-3.61 8.765-10.915 8.765Z" class="shade0"/>
    <path fill="#28192D" d="M262.77 249.79a10.09 10.09 0 0 1-1.785-.165c-2.305-.425-4.295-1.94-5.915-4.5-3.53-5.58-4.215-14.435-3.575-16.84.875-3.285 17.1-56.57 17.265-57.105l.5.145c-.165.535-16.385 53.81-17.26 57.09-.61 2.27.115 11.065 3.5 16.44 1.54 2.435 3.415 3.875 5.58 4.27.556.106 1.12.159 1.685.16 7 0 10.395-8.325 10.435-8.415l13.635-55.22.5.12-13.65 55.255c-.065.13-3.61 8.765-10.915 8.765ZM126.95 279.4h-.5v-27.24h202.68l-17.965 26.79-.415-.275 17.44-26.015H126.95v26.74Z" class="shade90"/>
    <path fill="#28192D" d="m274.5 236.22-.5-.095c1.74-9.285-1.59-26.29-1.62-26.46l.5-.095c.015.17 3.36 17.27 1.62 26.65Zm-12.24 10.305h-.205c-5.165-.155-9.11-6.17-9.275-6.425l.42-.27c.04.06 3.97 6.05 8.875 6.195 2.5.085 4.815-1.35 6.945-4.24l.4.295c-2.175 2.95-4.58 4.445-7.16 4.445Zm-37.46-4.405c-3.755-3.105-13.885-11.155-15.63-11.155-2.09 0-4.385 2-4.405 2l-.33-.38c.1-.085 2.455-2.125 4.735-2.125 2.28 0 14.55 10.115 15.95 11.27l-.32.39Zm-11.033-2.571-.338.368 11.212 10.329.339-.368-11.213-10.329ZM264.385 102s-17.575 9.645-25.885 13.38c-8.31 3.735-11.53 3.435-11.53 3.435s6.89-14.31 14.23-18.7c7.34-4.39 23.185 1.885 23.185 1.885Z" class="shade90"/>
    <path fill="#28192D" d="M250.075 102.665s-2.855 9.15-1.5 18.18 8.885 16.535 8.885 16.535 8.03-15.735 7.78-24.285c-.25-8.55-15.165-10.43-15.165-10.43Z" class="shade90"/>
    <path fill="#fff" d="m228.5 169.73 10.82 26.56 20.85-37.18 11.41 8.655-5.51 3.345 1.775 4.525-28.5 21.845-12.52-14.865 1.28-3.045-5.41-.885 5.805-8.955Z" class="shade0"/>
    <path fill="#28192D" d="M239.305 197.825 226.54 182.66l1.215-2.895-5.475-.895 6.27-9.675 10.805 26.5 20.74-37 11.93 9.055-5.645 3.425 1.765 4.5-.15.11-28.69 22.04Zm-12.19-15.25 12.265 14.565 28.16-21.59-1.775-4.55 5.37-3.265-10.885-8.235-20.965 37.385-10.835-26.615-5.335 8.23 5.345.875-1.345 3.2Z" class="shade90"/>
    <path fill="#28192D" d="m239.473 196.101-.494.083 3.577 21.372.493-.082-3.576-21.373Z" class="shade90"/>
    <path fill="#fff" d="M233.145 134.83c1.265.405 2.593.575 3.92.5a8.352 8.352 0 0 0 2.975-.725s-1.5 3.375-3.685 3.755c-2.185.38-3.085-.5-3.085-.5s.965-2.15-.125-3.03Z" class="shade0"/>
    <path fill="#28192D" d="M235.325 138.73a3.232 3.232 0 0 1-2.23-.68.26.26 0 0 1-.071-.132.259.259 0 0 1 .016-.148s.875-2-.055-2.745a.247.247 0 0 1-.088-.147.255.255 0 0 1 .027-.169.255.255 0 0 1 .13-.112.257.257 0 0 1 .171-.002c1.231.395 2.523.565 3.815.5a8.367 8.367 0 0 0 2.885-.695.253.253 0 0 1 .148-.028.259.259 0 0 1 .137.063.255.255 0 0 1 .06.285c-.065.145-1.595 3.5-3.87 3.9a6.163 6.163 0 0 1-1.075.11Zm-1.75-.94c.305.2 1.175.625 2.735.35 1.5-.26 2.665-2.07 3.2-3a9.843 9.843 0 0 1-5.745.155c.355.865-.02 2.04-.19 2.495Z" class="shade90"/>
    <path fill="#fff" d="M231.655 119.36s4.68-.63 5.545 0Z" class="shade0"/>
    <path fill="#28192D" d="m231.69 119.61-.07-.5c.5-.065 4.81-.625 5.73.06l-.3.4c-.55-.42-3.59-.2-5.36.04Z" class="shade90"/>
    <path fill="#fff" d="M243.81 119.675s4.26 2.5 6.23 4.97Z" class="shade0"/>
    <path fill="#28192D" d="M249.845 124.8c-1.915-2.4-6.12-4.885-6.165-4.91l.255-.43c.175.1 4.325 2.555 6.3 5.03l-.39.31Z" class="shade90"/>
    <path fill="#fff" d="M200.625 285.815c3.745 0 7.394-1.179 10.43-3.37l32.23-23.26a.766.766 0 0 0-.45-1.39H173.69l7.475 28 19.46.02Z" class="shade0"/>
    <path fill="#28192D" d="M200.625 286.065H180.97l-.05-.185-7.555-28.335h69.47a.999.999 0 0 1 .6 1.84L211.2 282.65a17.971 17.971 0 0 1-10.575 3.415Zm-19.27-.5h19.27a17.501 17.501 0 0 0 10.285-3.32L243.14 259a.498.498 0 0 0 .237-.595.497.497 0 0 0-.542-.34H174l7.355 27.5Z" class="shade90"/>
    <path fill="#fff" d="M197.15 285.815c3.744 0 7.393-1.179 10.43-3.37l32.23-23.26a.768.768 0 0 0 .287-.858.76.76 0 0 0-.732-.532h-69.15l7.475 28 19.46.02Z" class="shade0"/>
    <path fill="#28192D" d="M197.15 286.065H177.5l-.05-.185-7.555-28.335h69.5a.999.999 0 0 1 .595 1.84l-32.265 23.265a17.962 17.962 0 0 1-10.575 3.415Zm-19.27-.5h19.27a17.505 17.505 0 0 0 10.285-3.32L239.665 259a.503.503 0 0 0 .236-.591.504.504 0 0 0-.536-.344H170.54l7.34 27.5Z" class="shade90"/>
    <path fill="#A6C2EA" d="M201.53 280.835h3.555a.505.505 0 0 0 .29-.095l23.65-17.07a.5.5 0 0 0-.29-.895h-44.56l4.825 18.06h12.53Z" class="shade50"/>
    <path fill="#fff" d="M227.525 266.035H203.86v.5h23.665v-.5Zm-8.835 6.055h-11.42v.5h11.42v-.5Zm-17.43 13.725h-85.595a3.925 3.925 0 0 1-3.885-2.89L95.11 216.22c-.545-2.295 1.34-4.475 3.88-4.475h85.595a3.936 3.936 0 0 1 2.442.777 3.934 3.934 0 0 1 1.443 2.118l16.67 66.7c.545 2.3-1.34 4.475-3.88 4.475Z" class="shade0"/>
    <path fill="#28192D" d="M201.26 286.065h-85.595a4.138 4.138 0 0 1-4.125-3.085l-16.675-66.695a3.738 3.738 0 0 1 .72-3.185A4.296 4.296 0 0 1 99 211.5h85.585a4.14 4.14 0 0 1 4.125 3.085l16.675 66.7a3.735 3.735 0 0 1-.72 3.18 4.31 4.31 0 0 1-3.405 1.6ZM99 212a3.791 3.791 0 0 0-3 1.415 3.233 3.233 0 0 0-.63 2.755l16.675 66.7a3.695 3.695 0 0 0 3.64 2.7h85.575a3.795 3.795 0 0 0 3-1.415 3.243 3.243 0 0 0 .63-2.755l-16.665-66.7a3.687 3.687 0 0 0-3.64-2.705L99 212Z" class="shade90"/>
    <path fill="#fff" d="M199.18 285.815h-85.595a3.913 3.913 0 0 1-3.88-2.89L93.03 216.22c-.545-2.295 1.345-4.475 3.885-4.475H182.5a3.918 3.918 0 0 1 3.885 2.895l16.67 66.7c.555 2.3-1.335 4.475-3.875 4.475Z" class="shade0"/>
    <path fill="#28192D" d="M199.18 286.065h-85.595a4.142 4.142 0 0 1-4.125-3.085l-16.67-66.695a3.71 3.71 0 0 1 .71-3.185 4.286 4.286 0 0 1 3.405-1.605H182.5a4.144 4.144 0 0 1 4.125 3.085l16.675 66.7a3.707 3.707 0 0 1-.72 3.18 4.283 4.283 0 0 1-3.4 1.605ZM96.915 212a3.805 3.805 0 0 0-3 1.415 3.216 3.216 0 0 0-.625 2.755l16.67 66.7a3.699 3.699 0 0 0 3.64 2.7h85.58a3.789 3.789 0 0 0 3-1.415 3.211 3.211 0 0 0 .63-2.755l-16.665-66.7a3.687 3.687 0 0 0-3.645-2.7H96.915Z" class="shade90"/>
    <path fill="#ECA3B5" d="M143.925 255.23a6.155 6.155 0 1 0 0-12.31 6.155 6.155 0 0 0 0 12.31Z" class="shade40"/>
    <path fill="#fff" d="M143.925 255.5a6.407 6.407 0 0 1-6.288-7.652 6.405 6.405 0 0 1 12.688 1.247 6.417 6.417 0 0 1-6.4 6.405Zm0-12.31a5.898 5.898 0 0 0-3.282.993 5.897 5.897 0 0 0-2.177 2.649 5.909 5.909 0 0 0 1.276 6.437 5.907 5.907 0 0 0 10.083-4.174 5.913 5.913 0 0 0-5.9-5.925v.02Z" class="shade0"/>
    <path fill="#A6C2EA" d="M275.04 122.365a14.18 14.18 0 0 1-.03 4 25.011 25.011 0 0 1-1.68 5.925 39.248 39.248 0 0 1-4.925 8.61 43.447 43.447 0 0 1-4.715 5.37 31.608 31.608 0 0 1-7.235 5.32 15.726 15.726 0 0 1-5.24 1.755 7.443 7.443 0 0 1-3.565-.33 5.69 5.69 0 0 1-1.53-.835c-1.475-1.16-2.96-2.31-4.445-3.465-.75-.59 7.075-10.465 7.47-10.22.119.079.234.164.345.255 1.275 1 2.56 2 3.83 3a.54.54 0 0 0 .695.065A21.873 21.873 0 0 0 259 138a23.68 23.68 0 0 0 2.815-3.415 17.329 17.329 0 0 0 2.815-6.225.64.64 0 0 0-.255-.73c-1.3-1-2.58-2-3.87-3-.08-.065-.78-.61-.86-.68-.435-.38 6.87-10.215 7.645-9.615 1.5 1.165 4 2.63 5.5 3.81a5.772 5.772 0 0 1 1.905 2.865c.16.49.275 1.07.345 1.355Z" class="shade50"/>
    <path fill="#28192D" d="M250.04 153.67a7.01 7.01 0 0 1-2.475-.43 5.875 5.875 0 0 1-1.6-.865l-3.1-2.425-1.34-1.045c-.22-.17-.545-.425 1.575-3.47 1-1.425 2.385-3.25 3.635-4.77 2.165-2.625 2.34-2.5 2.54-2.385.107.067.211.141.31.22l1 .785 2.885 2.255a.307.307 0 0 0 .42.045 21.785 21.785 0 0 0 4.915-3.785 23.92 23.92 0 0 0 2.785-3.38 16.944 16.944 0 0 0 2.775-6.135.39.39 0 0 0-.16-.5c-.97-.735-1.925-1.5-2.885-2.235l-1-.77c-.08-.065-.79-.62-.87-.69-.7-.615 4.61-7.125 4.66-7.19 2.705-3.28 3.075-3 3.3-2.815.73.565 1.72 1.22 2.675 1.85.955.63 2.055 1.355 2.825 1.965a6.025 6.025 0 0 1 2 3c.13.405.225.82.295 1.125.03.105.05.2.07.275v.03c.18 1.346.17 2.711-.03 4.055a24.9 24.9 0 0 1-1.7 6 39.662 39.662 0 0 1-4.955 8.665 43.485 43.485 0 0 1-4.745 5.4 31.697 31.697 0 0 1-7.29 5.36 15.98 15.98 0 0 1-5.325 1.785 10.29 10.29 0 0 1-1.19.075Zm-8.165-5.125 1.3 1c1.037.806 2.07 1.613 3.1 2.42a5.45 5.45 0 0 0 1.465.795 7.113 7.113 0 0 0 3.445.315 15.36 15.36 0 0 0 5.155-1.725 31.14 31.14 0 0 0 7.16-5.27 42.085 42.085 0 0 0 4.69-5.335 39.216 39.216 0 0 0 4.895-8.555 24.633 24.633 0 0 0 1.665-5.865c.19-1.296.2-2.612.03-3.91 0-.075-.04-.17-.065-.275-.07-.29-.165-.695-.285-1.08a5.544 5.544 0 0 0-1.825-2.75c-.76-.595-1.795-1.275-2.795-1.94s-1.925-1.265-2.665-1.835c-.33.095-1.615 1.305-3.965 4.365-1.855 2.41-3.16 4.405-3.32 4.9l.77.605 1 .77c.955.75 1.91 1.5 2.875 2.23.16.105.28.26.343.441a.87.87 0 0 1 .007.559 17.511 17.511 0 0 1-2.85 6.315 24.892 24.892 0 0 1-2.845 3.445 21.999 21.999 0 0 1-5.025 3.835.796.796 0 0 1-.975-.09c-.95-.755-1.915-1.5-2.875-2.25l-1-.785-.16-.125c-1.075.78-7.235 8.75-7.25 9.795Z" class="shade90"/>
    <path fill="#fff" d="M271.1 144.43s4.255-2.77 4.545-6.29c.29-3.52 2.66-7.785 2.895-9.225.235-1.44-2.715-2.29-4.325.465-1.61 2.755-2.62 10.685-2.62 10.685l-.495 4.365Z" class="shade0"/>
    <path fill="#28192D" d="m270.795 144.93.55-4.89c.045-.33 1.04-8 2.655-10.785 1.045-1.79 2.68-2.185 3.755-1.8a1.38 1.38 0 0 1 1.03 1.5 14.754 14.754 0 0 1-.89 2.5c-.765 1.885-1.815 4.465-2 6.685-.3 3.595-4.5 6.36-4.66 6.475l-.44.315Zm6.155-17.11c-.825 0-1.815.5-2.5 1.69-1.565 2.68-2.58 10.5-2.59 10.59l-.43 3.8c1.08-.815 3.76-3.095 4-5.78.195-2.295 1.26-4.915 2.035-6.83.353-.78.643-1.588.865-2.415a.912.912 0 0 0-.71-.95 1.862 1.862 0 0 0-.67-.105Z" class="shade90"/>
    <path fill="#fff" d="M257.355 240.815c-5.97-2.21-6.645-43.1-.5-65.545s9.57-35.845 13.965-24.35c3.45 9.04 3.075 54.315 2.755 73.255a17.723 17.723 0 0 1-10.315 15.905c-2.07.92-4.165 1.375-5.905.735Z" class="shade0"/>
    <path fill="#28192D" d="M259.155 241.37a5.407 5.407 0 0 1-1.89-.325c-6.355-2.35-6.75-43.575-.63-65.84l.65-2.365c4.73-17.225 7.335-26.225 10.305-26.37 1.21-.035 2.325 1.325 3.5 4.36 3.47 9.075 3.095 54.32 2.775 73.35a18 18 0 0 1-10.465 16.13 10.56 10.56 0 0 1-4.245 1.06Zm8.5-94.4h-.045c-2.75.135-5.725 11-9.85 26l-.645 2.36c-6.375 23.19-5.24 63.185.32 65.245 1.5.555 3.43.31 5.735-.73a17.504 17.504 0 0 0 10.17-15.68c.32-19 .695-64.165-2.74-73.16-1.02-2.675-2.01-4.035-2.94-4.035h-.005Z" class="shade90"/>
    <path fill="#fff" d="M263.295 154.2c-1.22-1.4-2.305-3.615-1.965-7 .715-7.035 3.5-17.54 10.265-17.575 6.765-.035 7.06 5.535 3.78 15.245a22.498 22.498 0 0 1-4.375 7.885" class="shade0"/>
    <path fill="#28192D" d="M263.11 154.365c-1.64-1.87-2.32-4.285-2.03-7.175.87-8.585 4.09-17.77 10.5-17.8h.065c2.36 0 4 .655 4.965 2 1.655 2.3 1.335 6.61-1 13.565a22.844 22.844 0 0 1-4.42 7.955l-.375-.335a22.26 22.26 0 0 0 4.32-7.78c2.29-6.79 2.635-10.955 1.075-13.11-.88-1.225-2.405-1.81-4.615-1.805-2.925 0-5.34 2.04-7.19 6-1.85 3.96-2.575 8.835-2.83 11.335-.28 2.745.36 5.03 1.905 6.795l-.37.355Z" class="shade90"/>
    <path fill="#fff" d="M266.08 143.18c-1.805-1.85-5.45-5.75-6.85-8.73-1.215-2.595 2.845-1.17 5.915 2.65" class="shade0"/>
    <path fill="#28192D" d="M265.9 143.355c-3.5-3.595-5.88-6.64-6.895-8.8-.45-.95-.2-1.365.085-1.54.95-.6 3.89 1 6.25 3.93l-.39.315c-2.3-2.865-5-4.19-5.595-3.825-.16.1-.12.44.1.91 1 2.11 3.345 5.105 6.805 8.665l-.36.345Z" class="shade90"/>
    <path fill="#fff" d="M267.57 139.35c-2.89-2.53-7.81-6.825-8.555-9.715-.855-3.305 6.525 1.695 9.705 5.445" class="shade0"/>
    <path fill="#28192D" d="m267.405 139.535.165-.185-.2.155c-2.93-2.56-7.835-6.85-8.6-9.805-.21-.815.065-1.155.33-1.29 1.535-.8 7.24 3.475 9.81 6.5l-.38.325c-2.705-3.185-8.115-6.945-9.2-6.385-.19.095-.145.445-.075.72.725 2.805 5.555 7.03 8.445 9.555l-.13.22-.165.19Z" class="shade90"/>
    <path fill="#fff" d="M269.445 135.5c-2.89-2.5-8.69-6.15-9.445-9.04-.855-3.31 9.305 3.285 12.5 7.03" class="shade0"/>
    <path fill="#28192D" d="M269.28 135.69c-.76-.665-1.73-1.41-2.755-2.2-2.9-2.235-6.185-4.765-6.755-6.97-.18-.685.075-1 .325-1.105 1.755-.91 9.92 4.765 12.595 7.915l-.385.325c-2.855-3.365-10.695-8.465-12-7.8-.124.063-.149.243-.075.54.53 2.04 3.745 4.5 6.58 6.695 1.03.795 2 1.55 2.78 2.225l-.31.375Z" class="shade90"/>
    <path fill="#fff" d="M272.09 133.405c-2.89-2.53-7.345-5.675-8.095-8.565-.855-3.305 9.31 3.29 12.5 7.035" class="shade0"/>
    <path fill="#28192D" d="M271.925 133.59c-.565-.5-1.185-1-1.825-1.535-2.685-2.225-5.725-4.745-6.345-7.15-.175-.685.08-1 .325-1.11 1.755-.9 9.92 4.77 12.595 7.92l-.38.325c-2.855-3.365-10.695-8.475-12-7.8-.125.065-.145.245-.07.54.58 2.25 3.555 4.715 6.18 6.89.645.535 1.27 1.05 1.835 1.545l-.315.375Zm5.575 127.87s-.945-1.05-4.34-1.19l-1.5-.05c-5.175-.165-10.29-.425-11.09-1.645a.752.752 0 0 1-.09-.19 13.504 13.504 0 0 1-5.645-2.27 6.345 6.345 0 0 1-1.115-1 8.166 8.166 0 0 1-1.695-.685 6.731 6.731 0 0 1-2.653-2.473 6.731 6.731 0 0 1-.982-3.492c-.055-2.5.24-4.11.685-5.08-.865-4.235-1-10.245-.33-13.16-.23-2.145-.285-5.125-.335-7.655v-1.105c-.04-1.83-.035-3.26 0-4.355-1.415-2.245-2.155-6.28-1.84-10.72.067-1.05.234-2.092.5-3.11a44.272 44.272 0 0 1-1-5 48.137 48.137 0 0 1-.66-7.14c-1.105-2.77-.905-6.545-.275-9a16.5 16.5 0 0 1-.59-3.76c-.23-3.42.45-6 1.32-7.725-.8-.835-1.345-2.63-1-5.38.255-2.19 1.15-3.725 2.09-4.5a80.877 80.877 0 0 1-.84-8.775l.5-.025c.15 3.04.445 6.25.8 8.5.157-.093.325-.167.5-.22a1.188 1.188 0 0 1 1.3.255c.265.285.595 1-.09 2.575-.175.4-.455.92-.905.835-.45-.085-.84-1.11-1.135-2.555a6.688 6.688 0 0 0-1.705 4c-.3 2.58.18 4.125.78 4.85a5.246 5.246 0 0 1 1.87-2.075c.455-.225.72-.09.835 0 .26.235.275.68.045 1.325-.54 1.5-1.465 1.875-2.155 1.715a1.496 1.496 0 0 1-.44-.18 14.426 14.426 0 0 0-1.225 7.36c.053.969.175 1.933.365 2.885a3.17 3.17 0 0 1 .86-1.45.63.63 0 0 1 .764.004.624.624 0 0 1 .176.206c.61.845.44 2.295-.095 3.065a.904.904 0 0 1-.97.465 1.198 1.198 0 0 1-.66-.58 16.958 16.958 0 0 0 0 6.755c.137-1.133.437-1.8.9-2a1.036 1.036 0 0 1 1.205.455c.57.71.5 3.055.035 4.17-.18.435-.42.67-.705.695-.285.025-.555-.15-.815-.535l-.175-.275c.101 2.01.312 4.013.63 6 .27 1.805.535 3.16.78 4.18.47-1.245 1.07-1.925 1.605-1.925.335 0 .9.26.945 1.905.04 1.355-.24 3.53-1.17 3.615-.23 0-.745.065-1.385-1.76a17.427 17.427 0 0 0-.295 2.205c-.285 3.975.275 7.595 1.4 9.815.125-1.325.365-1.97.735-2.145a.63.63 0 0 1 .705.165c.87.76 2.185 3.46 1.555 4.38-.185.27-.585.5-1.465.05a3.652 3.652 0 0 1-1.11-.925c-.03 1-.03 2.225 0 3.685v1.105c.04 2.1.085 4.5.23 6.5a1.18 1.18 0 0 1 .38-.46.648.648 0 0 1 .84.15 3.002 3.002 0 0 1 .54 3.345c-.275.625-.685 1-1.075.96-.23 0-.545-.16-.725-.77a9.944 9.944 0 0 1-.105-.415 32.73 32.73 0 0 0-.17 3.5c-.01 2.477.201 4.95.63 7.39.199-.282.501-.474.84-.535.64-.065 1.195.5 1.39 1.395.195.895.5 4.365-.39 4.605-.38.105-.85-.17-1.715-2.85-.105-.34-.21-.7-.3-1.085a14.175 14.175 0 0 0-.39 4.175A6.24 6.24 0 0 0 252.27 254c.343.183.699.341 1.065.47a1 1 0 0 1 0-.745c.32-.745 1.595-.94 2.635-.75 1.04.19 1.605.675 1.63 1.31a.87.87 0 0 1-.46.78 3.965 3.965 0 0 1-2.5.255c.145.125.31.255.5.395a13.161 13.161 0 0 0 5.36 2.17c.5-1.24 2.215-1.885 3.595-1.795.955.065 1.59.465 1.75 1.09a.792.792 0 0 1-.405.87c-.69.465-2.34.665-4.275.43 1.295.95 7.455 1.145 10.5 1.24l1.5.05c3.66.15 4.665 1.32 4.705 1.37l-.37.32Zm-16.5-3.5c1.895.26 3.5.1 4.145-.33.24-.165.21-.285.2-.33-.1-.4-.585-.665-1.295-.715-1.105-.085-2.55.415-3.02 1.38l-.03-.005Zm-7-3.29c1.23.315 2.355.28 2.865-.04.23-.145.225-.285.225-.335 0-.455-.645-.73-1.22-.835-.935-.175-1.905.04-2.085.455-.035.115-.065.355.215.76v-.005Zm-4.41-11.22c.14.64.295 1.23.465 1.76.65 2.035 1 2.43 1.11 2.5.27-.34.335-2.57.03-4-.135-.63-.5-1.045-.845-1-.2.035-.485.24-.745.745l-.015-.005Zm-.345-13.205c.057.633.167 1.261.33 1.875.09.3.2.415.275.415.14 0 .39-.23.58-.665.216-.453.29-.96.213-1.456a2.49 2.49 0 0 0-.643-1.324c-.145-.14-.2-.105-.23-.085-.165.12-.35.545-.51 1.245l-.015-.005ZM248.93 217c.327.517.777.945 1.31 1.245.2.1.68.32.82.115.37-.54-.575-2.945-1.47-3.725-.085-.075-.14-.095-.16-.085-.255.13-.43.95-.5 2.45Zm-1.33-13.72c.63 2.205 1.09 2.21 1.115 2.2.315-.03.77-1.37.715-3.1-.025-.97-.255-1.42-.455-1.42-.345.01-.935.795-1.375 2.33v-.01Zm-1.66-12.225c.164.401.366.784.605 1.145.165.245.285.345.35.32.065-.025.17-.095.295-.395.43-1 .45-3.14.035-3.66-.165-.21-.415-.4-.61-.31-.195.09-.645.475-.675 2.91v-.01Zm-.255-8.9c.27.74.53.87.61.89.175.05.345-.145.43-.27a2.462 2.462 0 0 0 .1-2.5c-.13-.175-.185-.135-.25-.09-.3.235-.625.96-.89 1.98v-.01Zm.815-11.595c.098.064.206.112.32.14.61.145 1.215-.395 1.575-1.4.19-.535.13-.75.09-.78-.04-.03-.11-.025-.285.06a4.96 4.96 0 0 0-1.7 1.98Zm1-9.56c.25 1.425.5 2.36.79 2.425 0 0 .14-.045.355-.545.415-.945.5-1.71.18-2.04a.74.74 0 0 0-.78-.115c-.193.067-.376.16-.545.275Zm38.67 84.985h-4.28v3.32h4.28v-3.32Zm25.895 0h-4.28v3.32h4.28v-3.32Z" class="shade90"/>
    <path fill="#fff" d="M312.245 247.535h-30.54v17.26h30.54v-17.26Z" class="shade0"/>
    <path fill="#28192D" d="M312.5 265.045h-31.045v-17.76H312.5v17.76Zm-30.54-.5H312v-16.76h-30.045l.005 16.76Z" class="shade90"/>
    <path fill="#A6C2EA" d="M309.85 255.825h-25.745v4.4h25.745v-4.4Z" class="shade50"/>
    <path fill="#fff" d="m269.5 255.895 12.205-8.36v17.26l-13.375-5.115 1.17-3.785Z" class="shade0"/>
    <path fill="#28192D" d="M281.955 265.16 268 259.83l1.265-4.095.07-.045 12.6-8.63.02 18.1Zm-13.315-5.63 12.815 4.9V248l-11.745 8.05-1.07 3.48Z" class="shade90"/>
    <path fill="#fff" d="M122.405 153.11H25.62v43.08h96.785v-43.08Z" class="shade0"/>
    <path fill="#28192D" d="M122.65 196.44H25.37v-43.58h97.28v43.58Zm-96.78-.5h96.28v-42.58H25.87v42.58Z" class="shade90"/>
    <path fill="#F6D4A0" d="M115.615 164.615H66.93v2.065h48.685v-2.065Z" class="shade10"/>
    <path fill="#fff" d="M115.865 166.935H66.68v-2.565h49.185v2.565Zm-48.685-.5h48.185v-1.565H67.18v1.565Z" class="shade0"/>
    <path fill="#28192D" d="M114.435 175.435h-45.59v.5h45.59v-.5Zm-20.36 6.93H70.47v.5h23.605v-.5Z" class="shade90"/>
    <path fill="#A6C2EA" d="M62.26 158.275H31.57v30.69h30.69v-30.69Z" class="shade50"/>
    <path fill="#fff" d="M58.56 185.705c0 6.435-5.215 8.5-11.65 8.5-6.435 0-11.645-2.085-11.645-8.5a11.65 11.65 0 0 1 23.295 0ZM46.91 172.78a4.13 4.13 0 1 0 0-8.26 4.13 4.13 0 0 0 0 8.26Z" class="shade0"/>
    <path fill="#28192D" d="M329.044 254.116 305.446 291.4l.423.268 23.598-37.285-.423-.267Z" class="shade90"/>
    <path fill="#A6C2EA" d="M187.025 27.405H54.83V127.73h132.195V27.405Z" class="shade50"/>
    <path fill="#28192D" d="M187.275 128H54.58V27.155h132.695V128Zm-132.195-.5h131.695V27.655H55.08V127.5Z" class="shade90"/>
    <path fill="#A6C2EA" d="m182.7 103.14 20.36 31.865-17.41-7.375-10.03-12.395" class="shade50"/>
    <path fill="#28192D" d="m203.705 135.55-18.15-7.69.195-.46 16.665 7.065-19.925-31.19.42-.27 20.795 32.545Zm26.6 11.655 9.54 2.46s-.095 17.31.295 18.5l.395 1.18-1.18.295-.5-7.97-2.56 10.035S230 170.23 225.87 168.95c-4.13-1.28-6.295-3.145-6.295-3.145l13.87-8.755" class="shade90"/>
    <path fill="#fff" d="M145.61 68.045c.325 14.06-.605 64.73-.605 64.73s-49 3.805-67.295-14.655c0 0 5.685-41.735 9.19-55.94 3.505-14.205 19.47-16.68 27.475-16.845 8.005-.165 11.125 2.215 14.44 4 3 1.585 11.815 6.7 15.46 13.685" class="shade0"/>
    <path fill="#28192D" d="M134.805 133.325c-15.425 0-44.225-1.88-57.27-15.03l-.09-.09v-.12c.055-.42 5.725-41.91 9.195-55.965 1.55-6.285 5.655-10.94 12.19-13.85 5.845-2.595 12.235-3.11 15.5-3.185 7.095-.16 10.42 1.7 13.35 3.34.405.23.81.455 1.21.67 3.5 1.855 12 6.915 15.57 13.79l-.445.235c-3.525-6.755-11.915-11.75-15.36-13.585-.405-.215-.81-.445-1.22-.675-2.875-1.605-6.14-3.43-13.095-3.275-21 .5-26.04 11.805-27.235 16.655-3.33 13.65-8.785 53.26-9.105 55.79 17.455 17.435 63.15 14.755 66.785 14.5.065-3.725.91-51.08.6-64.5h.5c.32 13.9-.595 64.23-.605 64.74v.23h-.225c-.17.035-4.17.325-10.25.325Z" class="shade90"/>
    <path fill="#fff" d="M172.06 65.405a24.372 24.372 0 0 1-11.92 4.41c-6.885.5-7.695 1.61-11.9 1.205-3.315-.32-8.385 3.9-8.385 3.9l3.195 5.965 19.45-3.64 6.025-4.91 2.79-4.535" class="shade0"/>
    <path fill="#28192D" d="m142.915 81.165-3.375-6.305.155-.13c.21-.175 5.19-4.285 8.57-3.96 1.812.183 3.642.063 5.415-.355a54.18 54.18 0 0 1 6.44-.85 24.328 24.328 0 0 0 11.785-4.36l.305.4a24.95 24.95 0 0 1-12.055 4.46 52.677 52.677 0 0 0-6.385.845 17.149 17.149 0 0 1-5.55.36c-2.865-.28-7.17 3-8.045 3.715l3 5.62L162.405 77l5.945-4.85 2.77-4.5.425.265-2.845 4.595-6.08 4.99-19.705 3.665Z" class="shade90"/>
    <path fill="#fff" d="M156.76 56.69c.6-2.665.035-6.84-.8-10.7a3.753 3.753 0 0 0-1.05-1.885c-1.835-1.805-3.5-3.77-5.285-5.62-1.09-.955-2.24-1.77-3.42-2.625-.445-.215-.895-.41-1.355-.595a28.96 28.96 0 0 0-2.5-.87l-.43-.125-.685-.165c-.87-.2-1.74-.385-2.61-.565-1.235-.255-2.47-.5-3.7-.785a.403.403 0 0 0 0 .085c-1.94-.57-.2 11.82 1.09 15.13 1.29 3.31 7.275 6.255 8.615 10.395 1.735 9.325 1.55 16 .23 23.96 5-3.435 15.46 1.43 20.44-2.045.7-1.96-8.035-20.425-8.54-23.59Z" class="shade0"/>
    <path fill="#28192D" d="m144.5 82.855.095-.58c1.195-7.18 1.615-14-.225-23.875-.695-2.135-2.72-4-4.675-5.76-1.705-1.545-3.31-3-3.93-4.59-1.065-2.73-2.86-13.74-1.455-15.27a.634.634 0 0 1 .35-.205v-.14l.295.065c1.165.265 2.335.5 3.5.745l.195.04c.87.185 1.745.365 2.615.565l.545.135.205.05.385.11c.935.285 1.755.57 2.5.88.5.195.94.395 1.37.6h.04l.21.15c1.13.81 2.195 1.58 3.23 2.5.745.775 1.47 1.565 2.165 2.33 1 1.1 2.05 2.24 3.13 3.305a4 4 0 0 1 1.13 2c1.04 4.835 1.315 8.455.81 10.76.24 1.36 1.915 5.42 3.69 9.715 3.175 7.69 5.225 12.815 4.82 13.945l-.025.075-.065.045c-2.575 1.795-6.555 1.43-10.405 1.08-3.745-.345-7.615-.695-10.04.965l-.46.36Zm-9.71-49.795a.139.139 0 0 0-.06.018.14.14 0 0 0-.045.042c-.795.865-.16 10.365 1.55 14.75.575 1.47 2.14 2.895 3.8 4.4 2 1.825 4.08 3.71 4.82 6 1.82 9.74 1.465 16.5.33 23.54 2.57-1.425 6.285-1.085 9.89-.76 3.725.34 7.57.69 10-.94.23-1.245-2.57-8.035-4.835-13.5-1.885-4.56-3.5-8.5-3.725-9.87v-.095c.5-2.23.235-5.795-.8-10.595a3.505 3.505 0 0 0-1-1.76c-1.1-1.08-2.145-2.22-3.155-3.325-.7-.765-1.42-1.555-2.145-2.31-1-.875-2.06-1.635-3.175-2.44l-.21-.15a27.78 27.78 0 0 0-1.305-.57c-.75-.3-1.56-.585-2.5-.86l-.375-.11-.19-.045-.535-.135c-.87-.193-1.74-.38-2.61-.56l-.19-.04c-1.05-.215-2.105-.435-3.155-.67v.08l-.38-.075v-.02Z" class="shade90"/>
    <path fill="#fff" d="M166.045 113.5s2.06-18.885 2.815-24.23c.755-5.345 3.705-24.65 3.705-24.65-3.675 6.465-5.805 4.605-16 9.26a23.5 23.5 0 0 1-16.705 1.04s-3.16 32.68-2.255 45.25c.905 12.57 6.76 15.36 16.5 16.775.015 0 8.43-3.165 11.94-23.445Z" class="shade0"/>
    <path fill="#28192D" d="M154.145 137.205h-.06c-10.17-1.475-15.845-4.62-16.735-17-.89-12.38 2.225-44.965 2.255-45.295l.035-.325.305.115a23.43 23.43 0 0 0 16.5-1.035 72.12 72.12 0 0 1 7.81-3c4-1.33 5.66-1.885 8.075-6.14l.67-1.18-.205 1.34c-.03.195-2.96 19.365-3.705 24.65-.745 5.285-2.79 24.03-2.815 24.22-3.5 20.19-11.735 23.5-12.085 23.64l-.045.01Zm-14.07-61.945c-.32 3.385-3.07 33.14-2.225 44.895.865 12.085 6.15 15.06 16.235 16.535.73-.33 8.425-4.225 11.71-23.225.055-.5 2.075-19 2.815-24.23.635-4.5 2.85-19.03 3.5-23.4-2.2 3.445-4.045 4.06-7.7 5.275a71.483 71.483 0 0 0-7.76 3 24.09 24.09 0 0 1-16.575 1.15Zm-21.75-36.18s4.5 1.84 5.71-3.06S133 16.395 133 16.395l-10.465-2.72s-5-.5-6.875 5.405 1.16 7.84.67 10.84c-.49 3 1.995 9.16 1.995 9.16Z" class="shade90"/>
    <path fill="#fff" d="M93.305 51.915C90.11 54.365 79.5 62.95 71 75.25c-3.665 5.305-10.35 15.27-18.08 26.945a21.625 21.625 0 0 0-3.615 13.125c.965 16.735 20.035-1.2 28.9-.295L100.06 82.14" class="shade0"/>
    <path fill="#28192D" d="M54.895 122.73A5.559 5.559 0 0 1 52 122c-1.755-1.06-2.705-3.24-2.905-6.675a21.961 21.961 0 0 1 3.66-13.28c7.65-11.56 14.41-21.635 18.08-26.945 8.545-12.37 19.255-21.035 22.34-23.395l.3.395c-3.065 2.35-13.725 11-22.23 23.285-3.67 5.305-10.425 15.38-18.075 26.935a21.456 21.456 0 0 0-3.575 13c.19 3.255 1.06 5.31 2.665 6.28 3.115 1.875 8.68-.665 14.06-3.12 4.445-2.03 8.65-3.95 11.8-3.705L99.875 82l.415.275-21.94 33h-.15c-3.03-.3-7.435 1.705-11.695 3.65-4.12 1.875-8.345 3.805-11.61 3.805Z" class="shade90"/>
    <path fill="#fff" d="M79.95 143.61a.254.254 0 0 1-.262-.391.252.252 0 0 1 .162-.109 18.389 18.389 0 0 0 5.15-3.39 29.068 29.068 0 0 0 7.55-11.685.255.255 0 0 1 .32-.155.253.253 0 0 1 .144.128.243.243 0 0 1 .007.192 29.588 29.588 0 0 1-7.68 11.89 18.98 18.98 0 0 1-5.275 3.5.217.217 0 0 1-.115.02Zm36.995-22.82a11.27 11.27 0 0 1 6.165 0c3.865 1.175 9.415.46 11.045.82 1.63.36 1.29 3.86-2.325 4.405-2.435.37-6.045.905-8.145 1.215" class="shade0"/>
    <path fill="#28192D" d="m123.725 127.46-.075-.5 8.14-1.21c2.045-.31 3-1.63 3.05-2.725a1.07 1.07 0 0 0-.735-1.19 18.11 18.11 0 0 0-2.945-.105c-2.365 0-5.6.045-8.12-.72a10.938 10.938 0 0 0-6.03 0l-.135-.5a11.506 11.506 0 0 1 6.31 0c2.445.745 5.64.715 7.97.7a17.33 17.33 0 0 1 3.055.12 1.547 1.547 0 0 1 1.13 1.695c-.045 1.295-1.15 2.845-3.475 3.2l-8.14 1.235Z" class="shade90"/>
    <path fill="#fff" d="M111.555 133.885c7.5 3.63 19.755 7.345 24 .55 4.245-6.795-1.2-10.5-12.97-13.205a26.404 26.404 0 0 0-10.59-.5l-17.805-6.68-1.69 16.04s15.465 2.06 19.055 3.795Z" class="shade0"/>
    <path fill="#28192D" d="M127.205 138.465c-4.795 0-10.605-1.86-15.76-4.355-3.5-1.7-18.835-3.75-19-3.77l-.24-.035L94 113.7l18 6.8c3.541-.54 7.155-.37 10.63.5 8.41 1.935 12.925 4.265 14.205 7.335.755 1.82.4 3.86-1.085 6.245-1.75 2.775-4.84 3.885-8.545 3.885Zm-15.54-4.805c2.665 1.29 7.92 3.545 13.14 4.16 5.22.615 8.69-.575 10.5-3.5 1.395-2.235 1.735-4.13 1.045-5.79-1.21-2.905-5.61-5.14-13.855-7.035a26.318 26.318 0 0 0-10.5-.475h-.13l-17.5-6.595-1.64 15.5c2.05.275 15.5 2.15 18.9 3.785l.04-.05Z" class="shade90"/>
    <path fill="#fff" d="M119.96 137c2.73 1.36 14.095 6.855 17.67 6.33 3.345-.5-5.12-5.37-10.5-7.45" class="shade0"/>
    <path fill="#28192D" d="M137.105 143.61c-4.25 0-15.045-5.285-17.255-6.395l.225-.445c1.405.705 13.845 6.86 17.5 6.31.16-.025.525-.095.545-.26.12-1.065-5.9-4.7-11.105-6.71l.18-.47c4.135 1.6 11.61 5.56 11.42 7.235-.04.375-.365.61-.965.7a3.98 3.98 0 0 1-.545.035Z" class="shade90"/>
    <path fill="#fff" d="M127.435 136c4.065 2 13.57 6.37 17.05 5.86 4-.585-7.415-7.325-12.94-9.065" class="shade0"/>
    <path fill="#28192D" d="M143.885 142.125c-3.96 0-12.795-4.09-16.56-5.925l.22-.45c3.94 1.92 13.5 6.34 16.9 5.835.27-.04.6-.13.615-.33.115-1.445-8.395-6.61-13.59-8.245l.15-.5c4.37 1.38 14.105 6.685 13.94 8.765-.025.29-.225.665-1.04.785-.21.037-.422.059-.635.065Z" class="shade90"/>
    <path fill="#fff" d="M131.545 132.77c4.615 2.16 12.06 5.345 15.055 4.905 4.285-.63-9.475-8.035-14.365-9.065" class="shade0"/>
    <path fill="#28192D" d="M146 137.965c-3.225 0-9.595-2.65-14.54-4.97l.215-.45c4.29 2 11.94 5.325 14.905 4.88.225-.03.595-.115.605-.315.045-1.56-10.315-7.27-15-8.255l.1-.5c4.19.885 15.445 6.675 15.38 8.76 0 .295-.195.675-1.03.795-.21.033-.422.052-.635.055Z" class="shade90"/>
    <path fill="#fff" d="M132.235 128.61c4.585 2.08 10.38 4.825 13.05 4.435 4.05-.595-7.89-7.135-13.295-8.74" class="shade0"/>
    <path fill="#28192D" d="M144.73 133.335c-2.715 0-7.455-2.155-11.675-4.075l-.925-.42.21-.455.925.42c4.26 1.935 9.555 4.35 12 4 .22-.035.595-.12.61-.31.105-1.46-9.17-6.53-13.94-7.945l.145-.5c4.465 1.33 14.435 6.45 14.29 8.46 0 .415-.375.67-1.035.77a4.403 4.403 0 0 1-.605.055Z" class="shade90"/>
    <path fill="#fff" d="m60.89 97.295 48.205 14.275s2.5 4.785 3.64 15.14c1.14 10.355-3.735 13.855-3.735 13.855s-15.29-4.405-33.115-9.595c-5.544-1.615-11.16-2.975-16.78-4.3-3.68-.87-8.904-3.325-9.624-10.28" class="shade0"/>
    <path fill="#28192D" d="m109.06 140.84-.12-.035c-.15-.045-15.5-4.465-33.115-9.595-5.68-1.655-11.4-3.03-16.765-4.295-3.345-.79-9.065-3.205-9.815-10.5l.5-.055c.685 6.64 5.5 9.135 9.435 10.06 5.375 1.27 11.095 2.65 16.79 4.305 16.78 4.885 31.5 9.125 33 9.56.655-.555 4.57-4.275 3.53-13.555-1.05-9.4-3.225-14.24-3.565-14.96l-48.1-14.24.14-.5 48.31 14.305.045.095c.025.045 2.5 4.945 3.67 15.225 1.16 10.38-3.625 13.94-3.83 14.09l-.11.095Z" class="shade90"/>
    <path fill="#ECA3B5" d="m136.159 31.316-4.148 5.127a2.69 2.69 0 0 0 .398 3.783l13.227 10.704a2.691 2.691 0 0 0 3.784-.4l4.148-5.126a2.69 2.69 0 0 0-.399-3.783l-13.227-10.704a2.69 2.69 0 0 0-3.783.4Z" class="shade40"/>
    <path fill="#28192D" d="M147.33 51.78a2.93 2.93 0 0 1-1.85-.65l-13.225-10.705a2.953 2.953 0 0 1-1.074-1.978 2.94 2.94 0 0 1 .639-2.157l4.145-5.125a2.946 2.946 0 0 1 1.976-1.077 2.94 2.94 0 0 1 2.159.637l13.23 10.705a2.947 2.947 0 0 1 .435 4.135l-4.15 5.125a2.929 2.929 0 0 1-2.285 1.09Zm-9.07-21.205a2.39 2.39 0 0 0-.265 0 2.42 2.42 0 0 0-1.64.925l-4.15 5.13a2.442 2.442 0 0 0 .365 3.43l13.225 10.705a2.444 2.444 0 0 0 3.435-.365l4.145-5.125a2.441 2.441 0 0 0-.36-3.43l-13.225-10.73a2.42 2.42 0 0 0-1.53-.54Z" class="shade90"/>
    <path fill="#fff" d="m138.714 31.124-6.36 7.86 13.624 11.023 6.36-7.859-13.624-11.024Z" class="shade0"/>
    <path fill="#fff" d="M152.97 39.615a9.662 9.662 0 0 0-2.2 1.635 2.404 2.404 0 0 0-.425.625 1.585 1.585 0 0 0 .279 1.747 1.588 1.588 0 0 0 1.721.408l.135-.05s1.945-1.5 2.205-3.155c.26-1.655-1.715-1.21-1.715-1.21Z" class="shade0"/>
    <path fill="#28192D" d="M151.785 44.375a1.848 1.848 0 0 1-1.38-.62 1.777 1.777 0 0 1-.285-2c.121-.252.28-.485.47-.69a9.897 9.897 0 0 1 2.265-1.68h.06c.045 0 1.115-.25 1.69.285a1.277 1.277 0 0 1 .315 1.205c-.27 1.74-2.215 3.25-2.295 3.31l-.065.04-.14.05c-.204.07-.419.104-.635.1Zm1.275-4.5a9.384 9.384 0 0 0-2.11 1.57 2.113 2.113 0 0 0-.38.56 1.286 1.286 0 0 0 .21 1.435 1.328 1.328 0 0 0 1.465.375l.105-.04c.235-.19 1.85-1.535 2.075-2.965a.813.813 0 0 0-.165-.76 1.534 1.534 0 0 0-1.2-.195v.02Z" class="shade90"/>
    <path fill="#fff" d="M153.63 36.385a2.393 2.393 0 0 0-3.33-.4c-.54.4-3.275 2.915-3.695 3.345l-.105.115c-1.305 1.645.755 3.845 2.545 2.76 1.425-.86 4.625-3.685 4.74-4.39.128-.48.072-.989-.155-1.43Z" class="shade0"/>
    <path fill="#28192D" d="M148.06 42.74a2.257 2.257 0 0 1-1.675-.77 2.04 2.04 0 0 1-.54-1.325 2.041 2.041 0 0 1 .46-1.355l.12-.14c.435-.44 3.18-2.96 3.725-3.365a2.635 2.635 0 0 1 3.675.45c.277.493.351 1.074.205 1.62-.135.86-3.5 3.74-4.855 4.565a2.15 2.15 0 0 1-1.115.32Zm3.725-7a2.241 2.241 0 0 0-1.335.445c-.53.395-3.27 2.91-3.665 3.32l-.09.095a1.545 1.545 0 0 0 .065 2.04 1.66 1.66 0 0 0 2.155.35c1.5-.91 4.535-3.67 4.62-4.21a1.93 1.93 0 0 0-.105-1.245 2.06 2.06 0 0 0-1.645-.795Z" class="shade90"/>
    <path fill="#fff" d="M150.4 33.625c-.785-1.03-2.235-1.615-3.275-.84-.545.405-3.36 3.665-3.78 4.095l-.105.12c-1.3 1.64.755 3.845 2.55 2.76 1.425-.86 4.835-3.85 4.945-4.555a2.426 2.426 0 0 0-.335-1.58Z" class="shade0"/>
    <path fill="#28192D" d="M144.8 40.295a2.28 2.28 0 0 1-1.67-.77 2.04 2.04 0 0 1 .04-2.82c.125-.13.5-.56.95-1.06 1.3-1.46 2.5-2.79 2.855-3.06 1.175-.875 2.765-.235 3.625.89.327.529.461 1.154.38 1.77-.135.86-3.675 3.89-5.06 4.73a2.158 2.158 0 0 1-1.12.32Zm3.405-7.61a1.498 1.498 0 0 0-.93.3c-.355.26-1.87 1.97-2.78 3-.465.525-.835.935-.97 1.075a.762.762 0 0 0-.085.1 1.54 1.54 0 0 0 .065 2.04 1.654 1.654 0 0 0 2.155.35c1.54-.93 4.74-3.835 4.825-4.38a2.178 2.178 0 0 0-.285-1.385 2.669 2.669 0 0 0-1.995-1.1Z" class="shade90"/>
    <path fill="#fff" d="M146.885 30.57c-.79-1.03-2.235-1.615-3.28-.84-.54.405-3.355 3.665-3.775 4.095l-.105.12c-1.305 1.64.755 3.845 2.55 2.76 1.42-.86 4.83-3.85 4.94-4.555a2.43 2.43 0 0 0-.33-1.58Z" class="shade0"/>
    <path fill="#28192D" d="M141.285 37.24a2.285 2.285 0 0 1-1.675-.77 2.051 2.051 0 0 1-.08-2.68l.12-.14c.13-.13.5-.56.955-1.06a41.098 41.098 0 0 1 2.855-3.06c1.175-.875 2.765-.235 3.62.89.331.527.467 1.153.385 1.77-.135.86-3.68 3.89-5.065 4.73a2.15 2.15 0 0 1-1.115.32Zm3.415-7.62a1.561 1.561 0 0 0-.945.31c-.35.26-1.87 1.97-2.775 3-.48.52-.835.93-.98 1.07a1.118 1.118 0 0 0-.09.105 1.538 1.538 0 0 0 .065 2.035 1.67 1.67 0 0 0 2.16.35c1.535-.93 4.74-3.835 4.825-4.38a2.212 2.212 0 0 0-.285-1.385 2.65 2.65 0 0 0-1.975-1.105Zm5.64 18.675a1.298 1.298 0 0 1-1.274-1.156 1.28 1.28 0 0 1 .279-.944 1.293 1.293 0 0 1 1.366-.424 1.29 1.29 0 0 1 .25 2.367c-.149.08-.312.13-.481.147l-.14.01Zm0-2.075a.783.783 0 0 0-.7.522.784.784 0 0 0 .78 1.048.79.79 0 0 0 .415-1.395.769.769 0 0 0-.49-.175h-.005Z" class="shade90"/>
    <path fill="#fff" d="M136.555 48s.5-7.97 3.7-9.285c3.2-1.315 1.685 9 1.685 9s5.915 3.16 4.76 7.61" class="shade0"/>
    <path fill="#28192D" d="m146.945 55.4-.5-.125c1.09-4.21-4.585-7.3-4.64-7.33l-.155-.085.025-.175C142 45.615 142.5 40 141.21 39a.81.81 0 0 0-.86-.05c-3.035 1.245-3.54 9-3.545 9.07l-.5-.03c0-.33.53-8.14 3.855-9.5a1.299 1.299 0 0 1 1.36.12c1.675 1.315.875 7.66.69 9 .96.53 5.83 3.56 4.735 7.79Z" class="shade90"/>
    <path fill="#ECA3B5" d="M124.865 70.63a1.77 1.77 0 1 0 0-3.54 1.77 1.77 0 0 0 0 3.54Zm.195 9.05a1.77 1.77 0 1 0 0-3.54 1.77 1.77 0 0 0 0 3.54Zm.2 9.05a1.77 1.77 0 1 0 0-3.54 1.77 1.77 0 0 0 0 3.54Z" class="shade40"/>
    <path fill="#28192D" d="m195.04 44.485-.48-.135 6.695-23.875h-28.59v-.5h29.25l-6.875 24.51ZM143.9 200.56H95.655v.5H143.9v-.5Z" class="shade90"/>
    <path fill="#fff" d="M124.125 61.035a33.39 33.39 0 0 0 3.875-.35c.25-2.56.395-5.115.835-6.5l5.045-17.635-13.8-5.9.065.325s-1.395 8.205-3.42 11.645c-.27.46-2.73 3.33-3.035 3.675-1.41 1.575 2.455 8.625 6 14.345 1.47.214 2.951.346 4.435.395Z" class="shade0"/>
    <path fill="#28192D" d="M124.125 61.285a41.763 41.763 0 0 1-4.46-.395h-.115l-.06-.1c-5.19-8.375-7.205-13.29-5.99-14.665.375-.415 2.765-3.215 3-3.63 1.905-3.235 3.265-10.86 3.38-11.5l-.145-.74 14.435 6.155-5.1 17.845c-.35 1.105-.5 2.97-.69 4.95-.045.5-.09 1-.14 1.5v.195l-.19.03a33.28 33.28 0 0 1-3.905.355h-.02Zm-4.285-.875c1.421.2 2.851.325 4.285.375a32.43 32.43 0 0 0 3.645-.32c.045-.445.085-.89.12-1.325.18-2 .35-3.9.71-5.05l5-17.415-13.215-5.625c-.115.675-1.465 8.34-3.445 11.7-.3.5-2.84 3.46-3.065 3.71-.475.54-.84 2.95 5.965 13.95Zm18.495-27.225a12.33 12.33 0 0 0 2.92-6.76c.25-2.574.02-5.171-.68-7.66l-7.765-1.34" class="shade90"/>
    <path fill="#fff" d="M137.835 19.72s4.095 10.66.815 18.04c-3.28 7.38-7.71 7.575-11.125 5.935-4.53-2.18-8.965-10.45-8.255-19 .71-8.55 13.79-10.86 18.565-4.975Z" class="shade0"/>
    <path fill="#28192D" d="M130.905 44.785a8.062 8.062 0 0 1-3.5-.865c-4.645-2.23-9.125-10.5-8.4-19.24.305-3.67 2.93-6.615 7-7.875 4.595-1.415 9.5-.285 12 2.755l.04.07c.04.105 4.095 10.845.805 18.23-1.555 3.5-3.5 5.695-5.785 6.535a6.289 6.289 0 0 1-2.16.39ZM130.04 16.7a13.229 13.229 0 0 0-3.85.58c-3.89 1.2-6.385 4-6.67 7.44-.565 6.755 2.63 16.115 8.115 18.75 1.875.9 3.65 1.055 5.28.455 2.155-.79 4-2.9 5.5-6.265 3.11-7-.55-17.125-.805-17.815-1.66-2.025-4.5-3.145-7.57-3.145Z" class="shade90"/>
    <path fill="#fff" d="M120.935 34.105s-3.89-.585-4.62-3.895 2.3-4 3.215-2.445c.326.63.562 1.304.7 2" class="shade0"/>
    <path fill="#28192D" d="M120.9 34.35c-.04 0-4.07-.645-4.83-4.085-.43-1.95.38-3.025 1.28-3.385a1.923 1.923 0 0 1 2.395.755c.351.655.605 1.357.755 2.085l-.5.115a7.288 7.288 0 0 0-.675-1.945 1.432 1.432 0 0 0-1.78-.545c-.71.28-1.34 1.17-.975 2.815.685 3.095 4.375 3.69 4.415 3.7l-.085.49Z" class="shade90"/>
    <path fill="#fff" d="M117.45 28.805s-.585 1.285.67 3.03Z" class="shade0"/>
    <path fill="#28192D" d="M117.915 32c-1.32-1.84-.72-3.22-.695-3.28l.455.205c0 .05-.5 1.19.65 2.785l-.41.29Z" class="shade90"/>
    <path fill="#fff" d="M135.5 27.06s-.585 4.24 0 5.555c.585 1.315.5 2.265-.21 3-.71.735-2.88.06-3.275-.43" class="shade0"/>
    <path fill="#28192D" d="M134.265 36.19h-.13c-.89-.035-2-.44-2.325-.845l.39-.315c.57.411 1.251.641 1.955.66a1.227 1.227 0 0 0 .945-.245c.645-.67.695-1.5.16-2.725-.605-1.365-.045-5.5 0-5.69l.5.065c-.16 1.16-.47 4.4 0 5.425.615 1.385.53 2.455-.255 3.27a1.61 1.61 0 0 1-1.24.4Zm-12.42-7.56c.945-1.425 2.065-2.72 3.065-4.095.745-2.6 1.56-5.19 1.56-5.19l-7.285-1.57s-3.375 3.06-2.5 5.76c.55 1.67 2.13 4.73 3.25 6.81a15.943 15.943 0 0 0 1.585-.27 1.919 1.919 0 0 1 .325-1.445Zm7.52 1.437c.215-.013.377-.25.361-.532-.016-.281-.204-.5-.419-.487-.215.012-.376.25-.36.532.016.28.203.499.418.487Zm8.218 1.345c.215-.012.377-.25.361-.532-.017-.28-.204-.499-.419-.487-.215.013-.376.25-.36.532.016.28.203.499.418.487Z" class="shade90"/>
    <path fill="#fff" d="M126.835 24.785s2.275-.4 3.675-.04Z" class="shade0"/>
    <path fill="#28192D" d="m126.88 25.03-.09-.5c.095 0 2.345-.4 3.785-.03l-.125.5c-1.33-.355-3.55.025-3.57.03Z" class="shade90"/>
    <path fill="#fff" d="M136.19 25.09s2.275-.4 3.675-.035Z" class="shade0"/>
    <path fill="#28192D" d="m136.235 25.335-.09-.5c.095 0 2.35-.405 3.785-.035l-.125.5c-1.335-.35-3.55.035-3.57.035ZM120.22 29.15l-.27 1.195s.68 9.125 1.215 14.12c.535 4.995 13.145 12.125 16.81 3.77.785-1.79 1.72-13.5 1.72-13.5a9.987 9.987 0 0 1-2.195 3.03c-1.535 1.47-1.195-1.17-3-1.355-1.805-.185-3.53-.645-4.545.245-1.015.89-4.36-1.29-5.315-2.825-.955-1.535-3.41-4.915-3.41-4.915" class="shade90"/>
    <path fill="#fff" d="M134.42 38.445a37.667 37.667 0 0 1-3.765-.5l-1.03-.26s1.365 2.175 2.95 2.47l1.585.295.26-2.005Z" class="shade0"/>
    <path fill="#ECA3B5" d="M141.195 16.68c.74 6.36-5.195 2.82-12.95 3.72-7.755.9-14.17 4.19-14.915-2.17-.2-1.72.64-3.475 1.97-5.12 5.225-6.445 14.68-7.425 21.34-2.5 2.385 1.785 4.295 3.86 4.555 6.07Z" class="shade40"/>
    <path fill="#28192D" d="M117.585 22.31a4.816 4.816 0 0 1-2.91-.77c-.89-.65-1.41-1.725-1.59-3.28-.195-1.63.5-3.415 2-5.305 5.28-6.5 14.805-7.63 21.685-2.525 2.85 2.11 4.415 4.205 4.65 6.225.19 1.595-.025 2.65-.665 3.315-1.04 1.08-3.08.92-5.665.72a33.999 33.999 0 0 0-6.835-.04c-1.825.21-3.54.55-5.205.88a30.741 30.741 0 0 1-5.465.78Zm9.595-14.585a14.958 14.958 0 0 0-11.68 5.545c-1.445 1.78-2.09 3.44-1.915 4.93.175 1.49.62 2.375 1.39 2.935 1.6 1.165 4.57.58 8-.095 1.59-.315 3.4-.675 5.245-.89a35.207 35.207 0 0 1 6.93.04c2.455.19 4.39.34 5.265-.57.525-.54.695-1.5.53-2.91-.22-1.875-1.715-3.85-4.45-5.88a15.605 15.605 0 0 0-9.315-3.105Z" class="shade90"/>
    <path fill="#fff" d="m114.685 23.175-.44-2.29s11.065-2.36 17.04-2.73c5.975-.37 14.64 1.145 16.855 1.885s.7 2.395-2.4 1.215c-3.1-1.18-12 2.73-15.195 2.435-3.195-.295-15.86-.515-15.86-.515Z" class="shade0"/>
    <path fill="#28192D" d="M130.91 23.955h-.39c-3.125-.29-15.71-.5-15.84-.5h-.18l-.53-2.725.24-.055c.11 0 11.155-2.365 17.08-2.73 5.925-.365 14.675 1.135 16.95 1.89.7.235 1.13.59 1.21 1a.754.754 0 0 1-.295.725c-.5.41-1.695.645-3.5-.035-1.69-.645-5.405.35-8.68 1.23-2.37.6-4.62 1.2-6.065 1.2Zm-16-1.03c1.645.03 12.755.245 15.68.5 1.32.125 3.725-.5 6.275-1.205 3.5-.94 7.145-1.915 9-1.215 1.475.565 2.585.46 3 .12a.262.262 0 0 0 .12-.25c-.03-.165-.275-.415-.875-.615-2.245-.75-10.905-2.23-16.76-1.87-5.405.335-15.115 2.33-16.765 2.675l.325 1.86Z" class="shade90"/>
    <path fill="#28192D" d="m129.59 22.055-.085-.5c.495-.055 12.04-2.055 14.76-2.055 1.14-.045 2.283.005 3.415.15l-.115.5a21.06 21.06 0 0 0-3.3-.14c-2.675-.01-14.555 2.025-14.675 2.045Z" class="shade90"/>
    <path fill="#fff" d="M118.94 19.42c-.045-.235-1.035-5.77.5-8.255 1.535-2.485 2.77-2.76 2.825-2.77l.095.5s-1.08.265-2.5 2.545-.455 7.845-.445 7.9l-.475.08Zm17.01-1.7c-3.04-9-11.445-9.125-11.5-9.125v-.5c.085 0 8.845.11 12 9.465l-.5.16Z" class="shade0"/>
    <path fill="#28192D" d="M128.175 13.135c.14.575-.5.66-1.37.875-.87.215-1.735.5-1.875-.09-.14-.59.475-1.215 1.37-1.43.895-.215 1.735.07 1.875.645Zm-8.232 47.471-.497.053 3.259 30.546.498-.053-3.26-30.546Z" class="shade90"/>
  </g>
</svg>
