<?xml version="1.0" encoding="utf-8"?>
<!-- Generator: Adobe Illustrator 24.1.0, SVG Export Plug-In . SVG Version: 6.00 Build 0)  -->
<svg version="1.1" id="Layer_1" xmlns="http://www.w3.org/2000/svg" xmlns:xlink="http://www.w3.org/1999/xlink" x="0px" y="0px"
	 viewBox="0 0 310 310" style="enable-background:new 0 0 310 310;" xml:space="preserve">
<style type="text/css">
	.st0{fill:#FFFFFF;}
</style>
<path class="st0" d="M154.8,0.5C69.6,0.5,0,70.1,0,155.2S69.6,310,154.8,310s154.8-69.6,154.8-154.8S239.9,0.5,154.8,0.5L154.8,0.5z
	 M204.3,235.7c-1.5,6.2-9.3,7.7-13.9,6.2h-1.5L147,209.4l-27.9,23.2c-1.5,1.5-3.1,1.5-4.6,0l4.6-46.4l0,0v-1.5
	c0,0,75.8-68.1,78.9-71.2c4.6-1.5,3.1-3.1,3.1-3.1c0-3.1-6.2,0-6.2,0l-100.6,65l-41.8-13.9c0,0-6.2-1.5-7.7-7.7
	c0-4.6,7.7-7.7,7.7-7.7l165.6-66.5c0,0,13.9-6.2,13.9,4.6L204.3,235.7z"/>
</svg>
