<?xml version="1.0" encoding="utf-8"?>
<!-- Generator: Adobe Illustrator 24.1.0, SVG Export Plug-In . SVG Version: 6.00 Build 0)  -->
<svg version="1.1" id="Layer_1" xmlns="http://www.w3.org/2000/svg" xmlns:xlink="http://www.w3.org/1999/xlink" x="0px" y="0px"
	 viewBox="0 0 24 24" style="enable-background:new 0 0 24 24;" xml:space="preserve">
<style type="text/css">
	.st0{fill:#FFFFFF;}
</style>
<path class="st0" d="M12,2C6.5,2,2,6.5,2,12s4.5,10,10,10s10-4.5,10-10C22,6.5,17.5,2,12,2C12,2,12,2,12,2z M15.2,17.2
	c-0.1,0.4-0.6,0.5-0.9,0.4c0,0-0.1,0-0.1,0l-2.7-2.1L9.7,17c-0.1,0.1-0.2,0.1-0.3,0l0.3-3l0,0l0-0.1c0,0,4.9-4.4,5.1-4.6
	C15.1,9.2,15,9.1,15,9.1c0-0.2-0.4,0-0.4,0l-6.5,4.2l-2.7-0.9c0,0-0.4-0.1-0.5-0.5c0-0.3,0.5-0.5,0.5-0.5l10.7-4.3
	c0,0,0.9-0.4,0.9,0.3L15.2,17.2z"/>
</svg>
