<?xml version="1.0" encoding="utf-8"?>
<!-- Generator: Adobe Illustrator 24.1.0, SVG Export Plug-In . SVG Version: 6.00 Build 0)  -->
<svg version="1.1" id="Layer_1" xmlns="http://www.w3.org/2000/svg" xmlns:xlink="http://www.w3.org/1999/xlink" x="0px" y="0px"
	 viewBox="0 0 310 310" style="enable-background:new 0 0 310 310;" xml:space="preserve">
<style type="text/css">
	.st0{fill:#FFFFFF;}
</style>
<path class="st0" d="M156.9,46.5L156.9,46.5c17.3,0,97.9,0,119.1,5.8c13.4,3.8,23,13.4,26.9,26.9c1.9,7.7,3.8,17.3,3.8,26.9v1.9v5.8
	v1.9c1.9,17.3,1.9,34.6,1.9,38.4v1.9c0,3.8,0,21.1-1.9,40.3v1.9v1.9c-1.9,11.5-1.9,21.1-3.8,30.7c-3.8,13.4-13.4,23-26.9,26.9
	c-23,5.8-107.5,5.8-119.1,5.8h-3.8c-5.8,0-30.7,0-55.7-1.9h-3.8h-1.9h-3.8h-3.8c-21.1,0-42.2-1.9-51.9-5.8
	C18.7,252,9,242.4,5.2,228.9c-1.9-7.7-3.8-19.2-3.8-30.7v-1.9v-1.9c0-13.4,0-25,0-38.4V154c0-3.8,0-19.2,1.9-34.6v-1.9v-1.9v-1.9
	v-5.8V106c0-9.6,1.9-19.2,3.8-26.9C11,65.7,20.6,56.1,34,52.3c9.6-1.9,28.8-3.8,51.9-5.8h3.8h3.8h1.9h3.8c17.3,0,34.6,0,53.8,0
	H156.9L156.9,46.5z M124.3,107.9v92.2l80.7-46.1L124.3,107.9z"/>
</svg>
